<svg id="brand" xmlns="http://www.w3.org/2000/svg" xmlns:xlink="http://www.w3.org/1999/xlink" viewBox="0 0 174.95 44">
  <defs>
    <style>
      .cls-1 {
        fill: #1c2a8c;
      }
    </style>
    <symbol id="logotype" data-name="logotype" viewBox="0 0 140.8 11.11">
      <g>
        <polygon class="cls-1" points="1.41 10.8 4.25 5.42 7.12 10.8 8.53 10.8 4.25 2.77 0 10.8 1.41 10.8"/>
        <polygon class="cls-1" points="98.95 10.8 101.8 5.42 104.67 10.8 106.08 10.8 101.8 2.77 97.55 10.8 98.95 10.8"/>
        <polygon class="cls-1" points="133.67 10.8 136.52 5.42 139.39 10.8 140.8 10.8 136.51 2.77 132.26 10.8 133.67 10.8"/>
        <path class="cls-1" d="M26.91,7.23V3.17H25.67V7.23a2.53,2.53,0,0,1-2.27,2.46,2.53,2.53,0,0,1-2.27-2.46V3.17H19.88V7.23a3.76,3.76,0,0,0,3.52,3.7A3.76,3.76,0,0,0,26.91,7.23Z"/>
        <polygon class="cls-1" points="41.96 10.8 43.2 10.8 43.2 4.45 45.85 4.45 45.85 3.2 39.3 3.2 39.3 4.45 41.96 4.45 41.96 10.8"/>
        <polygon class="cls-1" points="118.52 10.8 119.76 10.8 119.76 4.45 122.42 4.45 122.42 3.2 115.87 3.2 115.87 4.45 118.52 4.45 118.52 10.8"/>
        <polygon class="cls-1" points="84.61 5.71 85.85 10.8 87.09 10.8 85.09 2.61 81.24 8.77 77.38 2.61 75.38 10.8 76.62 10.8 77.85 5.8 81.24 11.11 84.61 5.71"/>
        <path class="cls-1" d="M60.8,10.91A3.9,3.9,0,1,0,56.91,7,3.9,3.9,0,0,0,60.8,10.91Zm0-6.56A2.66,2.66,0,1,1,58.14,7,2.66,2.66,0,0,1,60.8,4.36Z"/>
        <polygon class="cls-1" points="59.76 2.27 61.12 0 62.33 0 60.92 2.27 59.76 2.27"/>
      </g>
    </symbol>
  </defs>
  <title>brand</title>
  <use width="140.8" height="11.11" transform="translate(17.08 16.45)" xlink:href="#logotype"/>
</svg>
