<svg id="Layer_11" data-name="Layer 11" xmlns="http://www.w3.org/2000/svg" viewBox="0 0 141.21 11.67"><defs><style>.cls-1{fill:#284f9b;}</style></defs><title>brand</title><g id="New_Symbol_11" data-name="New Symbol 11"><polygon class="cls-1" points="0.1 11.07 0 11.25 1.69 11.25 4.46 6.01 7.26 11.25 8.95 11.25 4.46 2.83 0.1 11.07"/><polygon class="cls-1" points="97.65 11.07 97.55 11.25 99.24 11.25 102.01 6.01 104.81 11.25 106.5 11.25 102.01 2.83 97.65 11.07"/><polygon class="cls-1" points="136.72 2.83 132.36 11.07 132.27 11.25 133.96 11.25 136.73 6.01 139.52 11.25 141.21 11.25 136.72 2.83"/><path class="cls-1" d="M2903.63,1520a2.16,2.16,0,1,1-4.3,0v-4.18h-1.49V1520a3.65,3.65,0,1,0,7.28,0v-4.18h-1.49V1520Z" transform="translate(-2877.88 -1512.48)"/><polygon class="cls-1" points="39.39 4.89 42.04 4.89 42.04 11.25 43.53 11.25 43.53 4.89 46.19 4.89 46.19 3.4 39.39 3.4 39.39 4.89"/><polygon class="cls-1" points="115.95 4.89 118.6 4.89 118.6 11.25 120.1 11.25 120.1 4.89 122.75 4.89 122.75 3.4 115.95 3.4 115.95 4.89"/><polygon class="cls-1" points="77.46 2.5 77.46 11.25 78.95 11.25 78.95 7.7 81.44 11.67 83.94 7.7 83.94 11.25 85.43 11.25 85.43 2.5 81.44 8.86 77.46 2.5"/><path class="cls-1" d="M2939.69,1515.8a4,4,0,1,0,4,4A4,4,0,0,0,2939.69,1515.8Zm2.53,4a2.53,2.53,0,1,1-2.53-2.53A2.53,2.53,0,0,1,2942.22,1519.82Z" transform="translate(-2877.88 -1512.48)"/><polygon class="cls-1" points="63.47 0 62.06 0 60.55 2.52 61.9 2.52 63.47 0"/></g></svg>